<?xml version="1.0" encoding="UTF-8" standalone="no"?>
<!DOCTYPE svg PUBLIC "-//W3C//DTD SVG 1.1//EN" "http://www.w3.org/Graphics/SVG/1.1/DTD/svg11.dtd">
<svg width="100%" height="100%" viewBox="0 0 20 40" version="1.1" xmlns="http://www.w3.org/2000/svg" xmlns:xlink="http://www.w3.org/1999/xlink" xml:space="preserve" xmlns:serif="http://www.serif.com/" style="fill-rule:evenodd;clip-rule:evenodd;stroke-linejoin:round;stroke-miterlimit:1.41421;">
    <g transform="matrix(0.206706,0,0,0.206706,-1701.16,-998.68)">
        <path id="path2987" d="M8282.44,4961.9L8282.44,4945.31L8256.27,4945.31C8254.53,4945.31 8253.13,4946.61 8253.13,4948.23L8253.13,5004.86C8253.13,5006.48 8254.53,5007.78 8256.27,5007.78L8300.24,5007.78C8301.98,5007.78 8303.38,5006.48 8303.38,5004.86L8303.38,4964.83L8285.58,4964.83C8283.85,4964.83 8282.44,4963.51 8282.44,4961.9ZM8290.82,4990.7C8290.82,4991.51 8290.11,4992.16 8289.25,4992.16L8267.26,4992.16C8266.4,4992.16 8265.69,4991.51 8265.69,4990.7L8265.69,4989.72C8265.69,4988.92 8266.4,4988.26 8267.26,4988.26L8289.25,4988.26C8290.11,4988.26 8290.82,4988.92 8290.82,4989.72L8290.82,4990.7ZM8290.82,4982.89C8290.82,4983.7 8290.11,4984.35 8289.25,4984.35L8267.26,4984.35C8266.4,4984.35 8265.69,4983.7 8265.69,4982.89L8265.69,4981.91C8265.69,4981.11 8266.4,4980.45 8267.26,4980.45L8289.25,4980.45C8290.11,4980.45 8290.82,4981.11 8290.82,4981.91L8290.82,4982.89ZM8290.82,4974.1L8290.82,4975.08C8290.82,4975.89 8290.11,4976.55 8289.25,4976.55L8267.26,4976.55C8266.4,4976.55 8265.69,4975.89 8265.69,4975.08L8265.69,4974.1C8265.69,4973.3 8266.4,4972.64 8267.26,4972.64L8289.25,4972.64C8290.11,4972.64 8290.82,4973.3 8290.82,4974.1ZM8303.38,4960.18L8303.38,4960.93L8286.63,4960.93L8286.63,4945.31L8287.43,4945.31C8288.26,4945.31 8289.06,4945.61 8289.65,4946.16L8302.46,4958.12C8303.05,4958.67 8303.38,4959.41 8303.38,4960.18Z" style="fill:rgb(1,1,1);fill-rule:nonzero;"/>
    </g>
    <g transform="matrix(0.206706,0,0,0.206706,-1701.16,-1018.68)">
        <path id="path29871" serif:id="path2987" d="M8282.44,4961.9L8282.44,4945.31L8256.27,4945.31C8254.53,4945.31 8253.13,4946.61 8253.13,4948.23L8253.13,5004.86C8253.13,5006.48 8254.53,5007.78 8256.27,5007.78L8300.24,5007.78C8301.98,5007.78 8303.38,5006.48 8303.38,5004.86L8303.38,4964.83L8285.58,4964.83C8283.85,4964.83 8282.44,4963.51 8282.44,4961.9ZM8290.82,4990.7C8290.82,4991.51 8290.11,4992.16 8289.25,4992.16L8267.26,4992.16C8266.4,4992.16 8265.69,4991.51 8265.69,4990.7L8265.69,4989.72C8265.69,4988.92 8266.4,4988.26 8267.26,4988.26L8289.25,4988.26C8290.11,4988.26 8290.82,4988.92 8290.82,4989.72L8290.82,4990.7ZM8290.82,4982.89C8290.82,4983.7 8290.11,4984.35 8289.25,4984.35L8267.26,4984.35C8266.4,4984.35 8265.69,4983.7 8265.69,4982.89L8265.69,4981.91C8265.69,4981.11 8266.4,4980.45 8267.26,4980.45L8289.25,4980.45C8290.11,4980.45 8290.82,4981.11 8290.82,4981.91L8290.82,4982.89ZM8290.82,4974.1L8290.82,4975.08C8290.82,4975.89 8290.11,4976.55 8289.25,4976.55L8267.26,4976.55C8266.4,4976.55 8265.69,4975.89 8265.69,4975.08L8265.69,4974.1C8265.69,4973.3 8266.4,4972.64 8267.26,4972.64L8289.25,4972.64C8290.11,4972.64 8290.82,4973.3 8290.82,4974.1ZM8303.38,4960.18L8303.38,4960.93L8286.63,4960.93L8286.63,4945.31L8287.43,4945.31C8288.26,4945.31 8289.06,4945.61 8289.65,4946.16L8302.46,4958.12C8303.05,4958.67 8303.38,4959.41 8303.38,4960.18Z" style="fill:white;fill-rule:nonzero;"/>
    </g>
</svg>
