<?xml version="1.0" encoding="UTF-8" standalone="no"?>
<!DOCTYPE svg PUBLIC "-//W3C//DTD SVG 1.1//EN" "http://www.w3.org/Graphics/SVG/1.1/DTD/svg11.dtd">
<svg width="100%" height="100%" viewBox="0 0 20 40" version="1.1" xmlns="http://www.w3.org/2000/svg" xmlns:xlink="http://www.w3.org/1999/xlink" xml:space="preserve" xmlns:serif="http://www.serif.com/" style="fill-rule:evenodd;clip-rule:evenodd;stroke-linejoin:round;stroke-miterlimit:1.41421;">
    <g transform="matrix(0.206706,0,0,0.206706,-1701.16,-1280.91)">
        <path id="path2149-9-2-6" d="M8303.75,6348.48L8299.06,6345.77C8299.53,6343.21 8299.53,6340.59 8299.06,6338.03L8303.75,6335.32C8304.29,6335.01 8304.53,6334.37 8304.36,6333.77C8303.14,6329.85 8301.05,6326.3 8298.33,6323.35C8297.91,6322.89 8297.23,6322.78 8296.7,6323.09L8292,6325.8C8290.03,6324.11 8287.76,6322.8 8285.3,6321.94L8285.3,6316.52C8285.3,6315.91 8284.87,6315.37 8284.27,6315.23C8280.22,6314.33 8276.08,6314.37 8272.23,6315.23C8271.62,6315.36 8271.19,6315.91 8271.19,6316.52L8271.19,6321.95C8268.75,6322.82 8266.48,6324.13 8264.49,6325.82L8259.81,6323.1C8259.27,6322.79 8258.59,6322.9 8258.18,6323.36C8255.45,6326.3 8253.37,6329.85 8252.15,6333.78C8251.96,6334.38 8252.22,6335.02 8252.76,6335.33L8257.45,6338.04C8256.98,6340.6 8256.98,6343.22 8257.45,6345.78L8252.76,6348.49C8252.22,6348.8 8251.97,6349.44 8252.15,6350.03C8253.37,6353.95 8255.45,6357.51 8258.18,6360.46C8258.59,6360.91 8259.28,6361.02 8259.81,6360.71L8264.5,6358C8266.48,6359.7 8268.75,6361.01 8271.2,6361.87L8271.2,6367.29C8271.2,6367.91 8271.64,6368.45 8272.24,6368.58C8276.29,6369.49 8280.43,6369.44 8284.28,6368.58C8284.89,6368.45 8285.31,6367.91 8285.31,6367.29L8285.31,6361.87C8287.76,6361 8290.03,6359.69 8292.02,6358L8296.71,6360.71C8297.25,6361.02 8297.92,6360.92 8298.34,6360.46C8301.07,6357.52 8303.15,6353.97 8304.37,6350.03C8304.53,6349.43 8304.3,6348.79 8303.76,6348.48L8303.75,6348.48ZM8278.25,6350.72C8273.39,6350.72 8269.43,6346.76 8269.43,6341.9C8269.43,6337.04 8273.39,6333.08 8278.25,6333.08C8283.11,6333.08 8287.06,6337.04 8287.06,6341.9C8287.06,6346.76 8283.11,6350.72 8278.25,6350.72Z" style="fill:rgb(1,1,1);fill-rule:nonzero;"/>
    </g>
    <g transform="matrix(0.206706,0,0,0.206706,-1701.16,-1300.91)">
        <path id="path2149-9-2-61" serif:id="path2149-9-2-6" d="M8303.75,6348.48L8299.06,6345.77C8299.53,6343.21 8299.53,6340.59 8299.06,6338.03L8303.75,6335.32C8304.29,6335.01 8304.53,6334.37 8304.36,6333.77C8303.14,6329.85 8301.05,6326.3 8298.33,6323.35C8297.91,6322.89 8297.23,6322.78 8296.7,6323.09L8292,6325.8C8290.03,6324.11 8287.76,6322.8 8285.3,6321.94L8285.3,6316.52C8285.3,6315.91 8284.87,6315.37 8284.27,6315.23C8280.22,6314.33 8276.08,6314.37 8272.23,6315.23C8271.62,6315.36 8271.19,6315.91 8271.19,6316.52L8271.19,6321.95C8268.75,6322.82 8266.48,6324.13 8264.49,6325.82L8259.81,6323.1C8259.27,6322.79 8258.59,6322.9 8258.18,6323.36C8255.45,6326.3 8253.37,6329.85 8252.15,6333.78C8251.96,6334.38 8252.22,6335.02 8252.76,6335.33L8257.45,6338.04C8256.98,6340.6 8256.98,6343.22 8257.45,6345.78L8252.76,6348.49C8252.22,6348.8 8251.97,6349.44 8252.15,6350.03C8253.37,6353.95 8255.45,6357.51 8258.18,6360.46C8258.59,6360.91 8259.28,6361.02 8259.81,6360.71L8264.5,6358C8266.48,6359.7 8268.75,6361.01 8271.2,6361.87L8271.2,6367.29C8271.2,6367.91 8271.64,6368.45 8272.24,6368.58C8276.29,6369.49 8280.43,6369.44 8284.28,6368.58C8284.89,6368.45 8285.31,6367.91 8285.31,6367.29L8285.31,6361.87C8287.76,6361 8290.03,6359.69 8292.02,6358L8296.71,6360.71C8297.25,6361.02 8297.92,6360.92 8298.34,6360.46C8301.07,6357.52 8303.15,6353.97 8304.37,6350.03C8304.53,6349.43 8304.3,6348.79 8303.76,6348.48L8303.75,6348.48ZM8278.25,6350.72C8273.39,6350.72 8269.43,6346.76 8269.43,6341.9C8269.43,6337.04 8273.39,6333.08 8278.25,6333.08C8283.11,6333.08 8287.06,6337.04 8287.06,6341.9C8287.06,6346.76 8283.11,6350.72 8278.25,6350.72Z" style="fill:white;fill-rule:nonzero;"/>
    </g>
</svg>
