<?xml version="1.0" encoding="UTF-8" standalone="no"?>
<!DOCTYPE svg PUBLIC "-//W3C//DTD SVG 1.1//EN" "http://www.w3.org/Graphics/SVG/1.1/DTD/svg11.dtd">
<svg width="100%" height="100%" viewBox="0 0 12 12" version="1.1" xmlns="http://www.w3.org/2000/svg" xmlns:xlink="http://www.w3.org/1999/xlink" xml:space="preserve" xmlns:serif="http://www.serif.com/" style="fill-rule:evenodd;clip-rule:evenodd;stroke-linejoin:round;stroke-miterlimit:1.41421;">
    <g id="path16097-7-5" transform="matrix(0.206706,0,0,0.206706,-1699.97,-823.339)">
        <path d="M8253.14,4015.31C8260.92,4015.31 8267.24,4008.99 8267.24,4001.2C8267.24,3993.42 8260.92,3987.1 8253.14,3987.1C8245.35,3987.1 8239.03,3993.42 8239.03,4001.2C8239.03,4008.99 8245.35,4015.31 8253.14,4015.31ZM8265.67,4018.44L8260.28,4018.44C8258.1,4019.44 8255.68,4020.01 8253.14,4020.01C8250.59,4020.01 8248.18,4019.44 8246,4018.44L8240.6,4018.44C8233.68,4018.44 8228.07,4024.05 8228.07,4030.97L8228.07,4032.54C8228.07,4035.14 8230.17,4037.24 8232.77,4037.24L8273.51,4037.24C8276.1,4037.24 8278.21,4035.14 8278.21,4032.54L8278.21,4030.97C8278.21,4024.05 8272.6,4018.44 8265.67,4018.44Z" style="fill:white;fill-rule:nonzero;"/>
    </g>
</svg>
