<svg width="20" height="40" viewBox="0 0 20 40" fill="none" xmlns="http://www.w3.org/2000/svg">
<path d="M9.65557 23.0707C9.87432 22.9764 10.1259 22.9764 10.3446 23.0707L16.4696 25.6958C16.8524 25.8602 17.0657 26.2703 16.981 26.675C16.8989 27.0824 16.5407 27.3504 16.1005 27.375V27.5938C16.1005 27.9574 15.8325 28.25 15.4442 28.25H4.50675C4.16878 28.25 3.8505 27.9574 3.8505 27.5938V27.375C3.45976 27.3504 3.1015 27.0824 3.01796 26.675C2.93443 26.2703 3.14856 25.8602 3.5303 25.6958L9.65557 23.0707ZM10.0001 26.5C10.4841 26.5 10.8751 26.109 10.8751 25.625C10.8751 25.1418 10.4841 24.75 10.0001 24.75C9.51612 24.75 9.12511 25.1418 9.12511 25.625C9.12511 26.109 9.51612 26.5 10.0001 26.5ZM6.4755 34.375H7.56925V29.125H9.31925V34.375H10.6564V29.125H12.4064V34.375H13.5001V29.125H15.2501V34.4926C15.2665 34.5008 15.2829 34.4871 15.2993 34.5227L16.6118 35.3977C16.9317 35.6109 17.0739 36.0102 16.9618 36.3793C16.8497 36.7484 16.5107 37 16.1251 37H3.8505C3.48956 37 3.14935 36.7484 3.03762 36.3793C2.92587 36.0102 3.06888 35.6109 3.38976 35.3977L4.70226 34.5227C4.71784 34.4871 4.73397 34.5008 4.7255 34.4926V29.125H6.4755V34.375Z" fill="#010101"/>
<path d="M9.65557 3.07074C9.87432 2.97642 10.1259 2.97642 10.3446 3.07074L16.4696 5.69582C16.8524 5.86016 17.0657 6.27031 16.981 6.675C16.8989 7.08242 16.5407 7.35039 16.1005 7.375V7.59375C16.1005 7.95742 15.8325 8.25 15.4442 8.25H4.50675C4.16878 8.25 3.8505 7.95742 3.8505 7.59375V7.375C3.45976 7.35039 3.1015 7.08242 3.01796 6.675C2.93443 6.27031 3.14856 5.86016 3.5303 5.69582L9.65557 3.07074ZM10.0001 6.5C10.4841 6.5 10.8751 6.10899 10.8751 5.625C10.8751 5.14184 10.4841 4.75 10.0001 4.75C9.51612 4.75 9.12511 5.14184 9.12511 5.625C9.12511 6.10899 9.51612 6.5 10.0001 6.5ZM6.4755 14.375H7.56925V9.125H9.31925V14.375H10.6564V9.125H12.4064V14.375H13.5001V9.125H15.2501V14.4926C15.2665 14.5008 15.2829 14.4871 15.2993 14.5227L16.6118 15.3977C16.9317 15.6109 17.0739 16.0102 16.9618 16.3793C16.8497 16.7484 16.5107 17 16.1251 17H3.8505C3.48956 17 3.14935 16.7484 3.03762 16.3793C2.92587 16.0102 3.06888 15.6109 3.38976 15.3977L4.70226 14.5227C4.71784 14.4871 4.73397 14.5008 4.7255 14.4926V9.125H6.4755V14.375Z" fill="white"/>
</svg>
