<?xml version="1.0" encoding="UTF-8" standalone="no"?>
<!DOCTYPE svg PUBLIC "-//W3C//DTD SVG 1.1//EN" "http://www.w3.org/Graphics/SVG/1.1/DTD/svg11.dtd">
<svg width="100%" height="100%" viewBox="0 0 20 40" version="1.1" xmlns="http://www.w3.org/2000/svg" xmlns:xlink="http://www.w3.org/1999/xlink" xml:space="preserve" xmlns:serif="http://www.serif.com/" style="fill-rule:evenodd;clip-rule:evenodd;stroke-linejoin:round;stroke-miterlimit:1.41421;">
    <g transform="matrix(0.206706,0,0,0.206706,-1701.16,-875.65)">
        <path id="path4348-1-9-9" d="M8277.32,4368.19L8254.82,4386.73L8254.82,4406.73C8254.82,4407.8 8255.7,4408.68 8256.77,4408.68L8270.45,4408.65C8271.52,4408.64 8272.39,4407.76 8272.39,4406.69L8272.39,4395.01C8272.39,4395.01 8272.39,4395.01 8272.39,4395.01C8272.39,4393.94 8273.27,4393.06 8274.34,4393.06L8282.16,4393.06C8283.23,4393.06 8284.11,4393.94 8284.11,4395.01L8284.11,4406.68C8284.11,4406.69 8284.11,4406.69 8284.11,4406.69C8284.11,4407.76 8284.99,4408.64 8286.06,4408.64C8286.06,4408.64 8286.06,4408.64 8286.06,4408.64L8299.74,4408.69C8299.74,4408.69 8299.74,4408.69 8299.74,4408.69C8300.81,4408.69 8301.69,4407.8 8301.69,4406.73C8301.69,4406.73 8301.69,4406.73 8301.69,4406.73L8301.69,4386.72L8279.19,4368.2C8278.65,4367.76 8277.87,4367.76 8277.32,4368.2L8277.32,4368.19ZM8312.87,4380.79L8302.66,4372.38L8302.66,4355.48C8302.66,4354.67 8302,4354.01 8301.2,4354.01L8294.36,4354.01C8293.56,4354.01 8292.9,4354.67 8292.9,4355.48L8292.9,4364.34L8281.97,4355.35C8279.82,4353.57 8276.68,4353.57 8274.53,4355.35L8243.63,4380.79C8243.3,4381.07 8243.1,4381.48 8243.1,4381.92C8243.1,4382.26 8243.22,4382.59 8243.44,4382.85L8246.55,4386.64C8246.83,4386.98 8247.24,4387.17 8247.68,4387.17C8248.02,4387.17 8248.35,4387.05 8248.61,4386.84L8277.32,4363.19C8277.86,4362.75 8278.65,4362.75 8279.19,4363.19L8307.9,4386.84C8308.16,4387.06 8308.49,4387.17 8308.83,4387.17C8309.27,4387.17 8309.68,4386.98 8309.96,4386.64L8313.07,4382.86C8313.29,4382.6 8313.41,4382.27 8313.41,4381.93C8313.41,4381.49 8313.21,4381.07 8312.87,4380.79L8312.87,4380.79Z" style="fill:rgb(1,1,1);fill-rule:nonzero;"/>
    </g>
    <g transform="matrix(0.206706,0,0,0.206706,-1701.16,-895.65)">
        <path id="path4348-1-9-91" serif:id="path4348-1-9-9" d="M8277.32,4368.19L8254.82,4386.73L8254.82,4406.73C8254.82,4407.8 8255.7,4408.68 8256.77,4408.68L8270.45,4408.65C8271.52,4408.64 8272.39,4407.76 8272.39,4406.69L8272.39,4395.01C8272.39,4395.01 8272.39,4395.01 8272.39,4395.01C8272.39,4393.94 8273.27,4393.06 8274.34,4393.06L8282.16,4393.06C8283.23,4393.06 8284.11,4393.94 8284.11,4395.01L8284.11,4406.68C8284.11,4406.69 8284.11,4406.69 8284.11,4406.69C8284.11,4407.76 8284.99,4408.64 8286.06,4408.64C8286.06,4408.64 8286.06,4408.64 8286.06,4408.64L8299.74,4408.69C8299.74,4408.69 8299.74,4408.69 8299.74,4408.69C8300.81,4408.69 8301.69,4407.8 8301.69,4406.73C8301.69,4406.73 8301.69,4406.73 8301.69,4406.73L8301.69,4386.72L8279.19,4368.2C8278.65,4367.76 8277.87,4367.76 8277.32,4368.2L8277.32,4368.19ZM8312.87,4380.79L8302.66,4372.38L8302.66,4355.48C8302.66,4354.67 8302,4354.01 8301.2,4354.01L8294.36,4354.01C8293.56,4354.01 8292.9,4354.67 8292.9,4355.48L8292.9,4364.34L8281.97,4355.35C8279.82,4353.57 8276.68,4353.57 8274.53,4355.35L8243.63,4380.79C8243.3,4381.07 8243.1,4381.48 8243.1,4381.92C8243.1,4382.26 8243.22,4382.59 8243.44,4382.85L8246.55,4386.64C8246.83,4386.98 8247.24,4387.17 8247.68,4387.17C8248.02,4387.17 8248.35,4387.05 8248.61,4386.84L8277.32,4363.19C8277.86,4362.75 8278.65,4362.75 8279.19,4363.19L8307.9,4386.84C8308.16,4387.06 8308.49,4387.17 8308.83,4387.17C8309.27,4387.17 8309.68,4386.98 8309.96,4386.64L8313.07,4382.86C8313.29,4382.6 8313.41,4382.27 8313.41,4381.93C8313.41,4381.49 8313.21,4381.07 8312.87,4380.79L8312.87,4380.79Z" style="fill:white;fill-rule:nonzero;"/>
    </g>
</svg>
