<?xml version="1.0" encoding="UTF-8" standalone="no"?>
<!DOCTYPE svg PUBLIC "-//W3C//DTD SVG 1.1//EN" "http://www.w3.org/Graphics/SVG/1.1/DTD/svg11.dtd">
<svg width="100%" height="100%" viewBox="0 0 12 12" version="1.1" xmlns="http://www.w3.org/2000/svg" xmlns:xlink="http://www.w3.org/1999/xlink" xml:space="preserve" xmlns:serif="http://www.serif.com/" style="fill-rule:evenodd;clip-rule:evenodd;stroke-linejoin:round;stroke-miterlimit:1.41421;">
    <g id="path15086-5-1" transform="matrix(0.206706,0,0,0.206706,-1802.55,-823.806)">
        <path d="M8763.7,3994.74C8769.97,3999.22 8774.04,4006.54 8774.04,4014.83C8774.04,4028.44 8763.02,4039.47 8749.42,4039.5C8735.84,4039.54 8724.72,4028.46 8724.7,4014.87C8724.7,4006.58 8728.77,3999.24 8735.03,3994.75C8736.19,3993.93 8737.81,3994.28 8738.51,3995.52L8740.08,3998.32C8740.67,3999.36 8740.39,4000.68 8739.42,4001.4C8735.3,4004.46 8732.66,4009.32 8732.66,4014.82C8732.66,4024 8740.07,4031.54 8749.37,4031.54C8758.49,4031.54 8766.15,4024.16 8766.09,4014.72C8766.09,4009.57 8763.63,4004.59 8759.31,4001.39C8758.35,4000.67 8758.08,3999.35 8758.66,3998.32L8760.23,3995.52C8760.93,3994.29 8762.54,3993.92 8763.7,3994.74L8763.7,3994.74ZM8753.35,4015.63L8753.35,3991.75C8753.35,3990.43 8752.29,3989.36 8750.96,3989.36L8747.78,3989.36C8746.46,3989.36 8745.39,3990.43 8745.39,3991.75L8745.39,4015.63C8745.39,4016.95 8746.46,4018.01 8747.78,4018.01L8750.96,4018.01C8752.29,4018.01 8753.35,4016.95 8753.35,4015.63Z" style="fill:white;fill-rule:nonzero;"/>
    </g>
</svg>
