<svg width="20" height="40" viewBox="0 0 20 40" fill="none" xmlns="http://www.w3.org/2000/svg">
<path d="M1 27.2437C1 27.0441 1.0628 26.85 1.18048 26.6832L3.38437 23.5843C3.64396 23.2193 4.08 23 4.54958 23H16.1171C16.5867 23 17.0212 23.2193 17.2808 23.5843L19.4858 26.6832C19.6025 26.85 19.6667 27.0441 19.6667 27.2437C19.6667 27.7988 19.1854 28.25 18.5933 28.25H2.0745C1.48125 28.25 1.00001 27.7988 1.00001 27.2437H1ZM2.86667 29.125H4.73333V33.5H10.3333V29.125H12.2V35.6875C12.2 36.4121 11.5729 37 10.8 37H4.26667C3.49346 37 2.86667 36.4121 2.86667 35.6875V29.125ZM15.9333 29.125H17.8V36.125C17.8 36.609 17.3829 37 16.8667 37C16.3504 37 15.9333 36.609 15.9333 36.125V29.125Z" fill="#010101"/>
<g clip-path="url(#clip0_315_1030)">
<path d="M1 7.24375C1 7.04414 1.05887 6.85 1.1692 6.6832L3.23535 3.58434C3.47871 3.21932 3.8875 3 4.32773 3H15.1723C15.6125 3 16.0199 3.21932 16.2633 3.58434L18.3305 6.6832C18.4398 6.85 18.5 7.04414 18.5 7.24375C18.5 7.79883 18.0488 8.25 17.4938 8.25H2.00734C1.45117 8.25 1.00001 7.79883 1.00001 7.24375H1ZM2.75 9.125H4.5V13.5H9.75V9.125H11.5V15.6875C11.5 16.4121 10.9121 17 10.1875 17H4.0625C3.33762 17 2.75 16.4121 2.75 15.6875V9.125ZM15 9.125H16.75V16.125C16.75 16.609 16.359 17 15.875 17C15.391 17 15 16.609 15 16.125V9.125Z" fill="white"/>
</g>
<defs>
<clipPath id="clip0_315_1030">
<rect width="17.5" height="14" fill="white" transform="translate(1 3)"/>
</clipPath>
</defs>
</svg>
