<?xml version="1.0" encoding="UTF-8" standalone="no"?>
<!DOCTYPE svg PUBLIC "-//W3C//DTD SVG 1.1//EN" "http://www.w3.org/Graphics/SVG/1.1/DTD/svg11.dtd">
<svg width="100%" height="100%" viewBox="0 0 20 40" version="1.1" xmlns="http://www.w3.org/2000/svg" xmlns:xlink="http://www.w3.org/1999/xlink" xml:space="preserve" xmlns:serif="http://www.serif.com/" style="fill-rule:evenodd;clip-rule:evenodd;stroke-linejoin:round;stroke-miterlimit:1.41421;">
    <g transform="matrix(0.206706,0,0,0.206706,-1701.16,-1039.69)">
        <path id="path4410-7-1-2" d="M8262.64,5174.94C8270.19,5174.94 8276.3,5168.83 8276.3,5161.27C8276.3,5153.72 8270.19,5147.61 8262.64,5147.61C8255.08,5147.61 8248.97,5153.72 8248.97,5161.27C8248.97,5168.83 8255.08,5174.94 8262.64,5174.94ZM8272.01,5178.85L8271,5178.85C8268.46,5180.07 8265.64,5180.8 8262.64,5180.8C8259.63,5180.8 8256.83,5180.07 8254.28,5178.85L8253.26,5178.85C8245.5,5178.85 8239.2,5185.15 8239.2,5192.91L8239.2,5196.42C8239.2,5199.65 8241.83,5202.28 8245.06,5202.28L8280.21,5202.28C8283.44,5202.28 8286.07,5199.65 8286.07,5196.42L8286.07,5192.91C8286.07,5185.15 8279.77,5178.85 8272.01,5178.85ZM8297.78,5174.94C8304.25,5174.94 8309.5,5169.69 8309.5,5163.23C8309.5,5156.76 8304.25,5151.51 8297.78,5151.51C8291.31,5151.51 8286.07,5156.76 8286.07,5163.23C8286.07,5169.69 8291.31,5174.94 8297.78,5174.94ZM8303.64,5178.85L8303.17,5178.85C8301.48,5179.43 8299.68,5179.82 8297.78,5179.82C8295.88,5179.82 8294.08,5179.43 8292.39,5178.85L8291.92,5178.85C8289.43,5178.85 8287.14,5179.57 8285.12,5180.73C8288.1,5183.94 8289.97,5188.19 8289.97,5192.91L8289.97,5197.59C8289.97,5197.86 8289.9,5198.12 8289.89,5198.37L8311.45,5198.37C8314.68,5198.37 8317.3,5195.75 8317.3,5192.52C8317.3,5184.96 8311.19,5178.85 8303.64,5178.85L8303.64,5178.85Z" style="fill:rgb(1,1,1);fill-rule:nonzero;"/>
    </g>
    <g transform="matrix(0.206706,0,0,0.206706,-1701.16,-1059.69)">
        <path id="path4410-7-1-21" serif:id="path4410-7-1-2" d="M8262.64,5174.94C8270.19,5174.94 8276.3,5168.83 8276.3,5161.27C8276.3,5153.72 8270.19,5147.61 8262.64,5147.61C8255.08,5147.61 8248.97,5153.72 8248.97,5161.27C8248.97,5168.83 8255.08,5174.94 8262.64,5174.94ZM8272.01,5178.85L8271,5178.85C8268.46,5180.07 8265.64,5180.8 8262.64,5180.8C8259.63,5180.8 8256.83,5180.07 8254.28,5178.85L8253.26,5178.85C8245.5,5178.85 8239.2,5185.15 8239.2,5192.91L8239.2,5196.42C8239.2,5199.65 8241.83,5202.28 8245.06,5202.28L8280.21,5202.28C8283.44,5202.28 8286.07,5199.65 8286.07,5196.42L8286.07,5192.91C8286.07,5185.15 8279.77,5178.85 8272.01,5178.85ZM8297.78,5174.94C8304.25,5174.94 8309.5,5169.69 8309.5,5163.23C8309.5,5156.76 8304.25,5151.51 8297.78,5151.51C8291.31,5151.51 8286.07,5156.76 8286.07,5163.23C8286.07,5169.69 8291.31,5174.94 8297.78,5174.94ZM8303.64,5178.85L8303.17,5178.85C8301.48,5179.43 8299.68,5179.82 8297.78,5179.82C8295.88,5179.82 8294.08,5179.43 8292.39,5178.85L8291.92,5178.85C8289.43,5178.85 8287.14,5179.57 8285.12,5180.73C8288.1,5183.94 8289.97,5188.19 8289.97,5192.91L8289.97,5197.59C8289.97,5197.86 8289.9,5198.12 8289.89,5198.37L8311.45,5198.37C8314.68,5198.37 8317.3,5195.75 8317.3,5192.52C8317.3,5184.96 8311.19,5178.85 8303.64,5178.85L8303.64,5178.85Z" style="fill:white;fill-rule:nonzero;"/>
    </g>
</svg>
