<?xml version="1.0" encoding="UTF-8" standalone="no"?>
<!DOCTYPE svg PUBLIC "-//W3C//DTD SVG 1.1//EN" "http://www.w3.org/Graphics/SVG/1.1/DTD/svg11.dtd">
<svg width="100%" height="100%" viewBox="0 0 82 32" version="1.1" xmlns="http://www.w3.org/2000/svg" xmlns:xlink="http://www.w3.org/1999/xlink" xml:space="preserve" xmlns:serif="http://www.serif.com/" style="fill-rule:evenodd;clip-rule:evenodd;stroke-linejoin:round;stroke-miterlimit:1.41421;">
    <g transform="matrix(1,0,0,1,-8177.57,-3084.49)">
        <g id="path1221-0-5" transform="matrix(0.0722262,0,0,0.0722262,8127.96,3072.06)">
            <path d="M695.573,304.305L695.573,303.779C695.573,252.236 735.736,209.982 790.67,209.982C823.332,209.982 843.015,218.798 861.923,234.876L836.787,265.189C822.811,253.508 810.379,246.779 789.374,246.779C760.35,246.779 737.277,272.443 737.277,303.257L737.277,303.779C737.277,336.967 760.101,361.309 792.242,361.309C806.74,361.309 819.697,357.697 829.809,350.419L829.809,324.512L789.622,324.512L789.622,290.055L868.4,290.055L868.4,368.829C849.74,384.627 824.107,397.58 790.918,397.58C734.44,397.58 695.573,357.942 695.573,304.305M906.806,213.096L1043.63,213.096L1043.63,248.596L946.44,248.596L946.44,285.393L1031.94,285.393L1031.94,320.897L946.44,320.897L946.44,358.989L1044.92,358.989L1044.92,394.49L906.806,394.49L906.806,213.093M1142.64,211.797L1179.44,211.797L1257.17,394.49L1215.46,394.49L1198.87,353.809L1122.16,353.809L1105.6,394.49L1064.91,394.49L1142.64,211.797ZM1184.62,318.55L1160.53,259.732L1136.41,318.55L1184.62,318.55ZM1285.2,213.096L1368.11,213.096C1391.18,213.096 1409.07,219.569 1420.98,231.479C1431.09,241.595 1436.52,255.847 1436.52,272.961L1436.52,273.459C1436.52,302.756 1420.73,321.146 1397.66,329.689L1441.95,394.49L1395.32,394.49L1356.45,336.439L1325.1,336.439L1325.1,394.486L1285.2,394.486L1285.2,213.096ZM1365.52,301.187C1384.95,301.187 1396.12,290.819 1396.12,275.554L1396.12,275.032C1396.12,257.911 1383.9,252.413 1364.75,249.118L1325.11,249.118L1325.11,301.187L1365.52,301.187M1472.58,213.096L1609.41,213.096L1609.41,248.596L1512.22,248.596L1512.22,285.393L1597.72,285.393L1597.72,320.897L1512.22,320.897L1512.22,358.989L1610.7,358.989L1610.7,394.49L1472.58,394.49L1472.58,213.093M1646.23,213.096L1716.96,213.096C1773.98,213.096 1813.37,252.236 1813.37,303.285L1813.37,303.776C1813.37,354.825 1773.98,394.49 1716.96,394.49L1646.23,394.49L1646.23,213.096ZM1686.14,249.118L1686.14,358.464L1716.96,358.464C1749.62,358.464 1771.64,336.439 1771.64,304.305L1771.64,303.776C1771.64,271.665 1749.62,249.118 1716.96,249.118L1686.14,249.118" style="fill:white;fill-rule:nonzero;"/>
        </g>
        <g id="g1239-1-3" transform="matrix(0.0656664,0,0,0.0621737,7735.34,3011.44)">
            <path id="path1225-8-0" d="M6762.65,1487.03L6876.61,1487.03L6876.61,1503.56L6780.54,1503.56L6780.54,1560.2L6866.41,1560.2L6866.41,1576.53L6780.54,1576.53L6780.54,1645.64L6762.65,1645.64L6762.65,1487.03" style="fill:white;fill-rule:nonzero;"/>
            <path id="path1227-0-9" d="M6939.48,1645.64L6957.38,1645.64L6957.38,1487.06L6939.48,1487.06L6939.48,1645.64" style="fill:white;fill-rule:nonzero;"/>
            <path id="path1229-7-7" d="M7020.26,1487.03L7037.02,1487.03L7136.92,1614.12L7136.92,1487.03L7154.38,1487.03L7154.38,1645.64L7140.12,1645.64L7037.68,1515.58L7037.68,1645.64L7020.26,1645.64L7020.26,1487.03" style="fill:white;fill-rule:nonzero;"/>
            <path id="path1231-0-5" d="M7289.53,1485.93L7306.29,1485.93L7378.57,1645.64L7359.31,1645.64L7340.74,1603.75L7254.41,1603.75L7235.61,1645.64L7217.25,1645.64L7289.53,1485.93ZM7333.71,1587.43L7297.69,1506.78L7261.44,1587.43L7333.71,1587.43Z" style="fill:white;fill-rule:nonzero;"/>
            <path id="path1233-0-4" d="M7638.44,1564.07L7638.44,1563.63C7638.44,1518.75 7671.96,1481.6 7718.64,1481.6C7747.4,1481.6 7764.63,1491.79 7780.49,1506.76L7768.26,1519.89C7754.9,1507.23 7739.93,1498.16 7718.4,1498.16C7683.29,1498.16 7657.03,1526.68 7657.03,1563.17L7657.03,1563.63C7657.03,1600.33 7683.52,1629.12 7718.4,1629.12C7740.16,1629.12 7754.43,1620.72 7769.62,1606.22L7781.38,1617.79C7764.86,1634.55 7746.73,1645.64 7717.94,1645.64C7672.19,1645.64 7638.44,1609.62 7638.44,1564.07" style="fill:white;fill-rule:nonzero;"/>
            <path id="path1235-1-7" d="M7844.26,1487.07L7844.26,1645.64L7960.06,1645.64L7960.06,1629.35L7862.15,1629.35L7862.15,1573.86L7948.72,1573.86L7948.72,1557.54L7862.15,1557.54L7862.15,1503.4L7958.92,1503.4L7958.92,1487.07L7844.26,1487.07" style="fill:white;fill-rule:nonzero;"/>
            <path id="path1237-9-0" d="M7441.44,1487.03L7458.2,1487.03L7558.1,1614.12L7558.1,1487.03L7575.56,1487.03L7575.56,1645.64L7561.3,1645.64L7458.87,1515.58L7458.87,1645.64L7441.44,1645.64L7441.44,1487.03" style="fill:white;fill-rule:nonzero;"/>
        </g>
    </g>
</svg>
