<?xml version="1.0" encoding="UTF-8" standalone="no"?>
<!DOCTYPE svg PUBLIC "-//W3C//DTD SVG 1.1//EN" "http://www.w3.org/Graphics/SVG/1.1/DTD/svg11.dtd">
<svg width="100%" height="100%" viewBox="0 0 32 32" version="1.1" xmlns="http://www.w3.org/2000/svg" xmlns:xlink="http://www.w3.org/1999/xlink" xml:space="preserve" xmlns:serif="http://www.serif.com/" style="fill-rule:evenodd;clip-rule:evenodd;stroke-linejoin:round;stroke-miterlimit:1.41421;">
    <g transform="matrix(1,0,0,1,-8136.03,-3084.49)">
        <g id="path1213-2-4" transform="matrix(0.206706,0,0,0.206706,6434.4,2426.81)">
            <path d="M8332.6,3215.81C8342.62,3210.48 8353.18,3206.83 8364.86,3205.16L8371.21,3212.23L8367.08,3219.35C8369.33,3222.61 8371.21,3226 8372.93,3229.45L8381.14,3229.43L8385.03,3241.39L8378.36,3246.22C8379.08,3250.09 8379.47,3253.95 8379.56,3257.81L8387.1,3261.15L8385.79,3273.66L8377.74,3275.36C8376.84,3279.06 8375.67,3282.75 8374.14,3286.45L8379.65,3292.56L8373.36,3303.45L8365.3,3301.72C8363,3304.63 8360.61,3307.54 8357.51,3310.37L8360.06,3318.21L8349.89,3325.6L8343.25,3320.76C8341.47,3321.76 8339.63,3322.72 8337.58,3323.54C8340.04,3314.74 8340.82,3305.79 8340.67,3296.81C8368.43,3271.19 8360.16,3231.3 8332.6,3215.81Z" style="fill:white;fill-rule:nonzero;"/>
        </g>
        <g id="path1215-2-5" transform="matrix(0.206706,0,0,0.206706,6434.4,2426.81)">
            <path d="M8261.25,3261.38C8251.57,3255.61 8242.15,3247.8 8234.98,3238.33L8237.82,3229.31L8246.06,3229.33C8247.75,3225.72 8249.69,3222.41 8251.87,3219.27L8247.76,3212.1L8256.18,3202.79L8263.73,3206.13C8266.72,3203.59 8269.85,3201.4 8273.16,3199.4L8272.25,3191.21L8283.79,3186.08L8289.29,3192.2C8292.95,3191.15 8296.73,3190.31 8300.7,3189.8L8303.23,3181.97L8315.8,3181.94L8318.34,3189.81C8322.01,3190.36 8325.74,3190.93 8329.74,3192.22L8335.23,3186.09L8346.72,3191.21L8345.86,3199.39C8347.61,3200.44 8349.25,3201.47 8350.98,3202.85C8342.25,3205.2 8334.73,3208.59 8326.98,3213.14C8290.92,3200.36 8259.72,3228.29 8261.25,3261.38Z" style="fill:white;fill-rule:nonzero;"/>
        </g>
        <g id="path1217-1-8" transform="matrix(0.206706,0,0,0.206706,6434.4,2426.81)">
            <path d="M8335.62,3300.82C8335.28,3312.16 8332.94,3323.38 8328.6,3334.35L8319.43,3336.29L8315.28,3329.15C8311.33,3329.49 8307.5,3329.41 8303.66,3329.19L8299.6,3336.3L8287.26,3333.67L8286.41,3325.5C8282.7,3324.21 8279.15,3322.59 8275.75,3320.76L8269.15,3325.6L8258.93,3318.26L8261.47,3310.38C8258.71,3307.76 8256.15,3304.9 8253.69,3301.74L8245.68,3303.45L8239.38,3292.56L8244.84,3286.5C8243.45,3283.05 8242.19,3279.42 8241.27,3275.33L8233.24,3273.68L8231.93,3261.14L8239.44,3257.83C8239.44,3255.79 8239.59,3253.66 8239.89,3251.47C8246.31,3257.97 8254.06,3263.4 8261.93,3267.72C8269.82,3305.24 8307.93,3317.86 8335.55,3300.66L8335.62,3300.82Z" style="fill:white;fill-rule:nonzero;"/>
        </g>
    </g>
</svg>
